<svg xmlns="http://www.w3.org/2000/svg" viewBox="0 0 64 64" role="img" aria-label="Cofferagi">
  <defs>
    <linearGradient id="g" x1="0" y1="0" x2="1" y2="1">
      <stop offset="0" stop-color="#d6b36a"/>
      <stop offset="1" stop-color="#b98c40"/>
    </linearGradient>
  </defs>
  <rect width="64" height="64" rx="16" fill="#0b0a08"/>
  <path
    d="M20 26h24v10a12 12 0 0 1-12 12h-2a10 10 0 0 1-10-10V26Z"
    fill="none"
    stroke="url(#g)"
    stroke-width="3.5"
    stroke-linejoin="round"
  />
  <path
    d="M44 30h3a5 5 0 0 1 0 10h-4"
    fill="none"
    stroke="url(#g)"
    stroke-width="3.5"
    stroke-linecap="round"
    stroke-linejoin="round"
  />
  <path
    d="M24 50h18"
    fill="none"
    stroke="url(#g)"
    stroke-width="3.5"
    stroke-linecap="round"
  />
  <path
    d="M26 22c0-2 1-3 2-4m6 4c0-2 1-3 2-4m6 4c0-2 1-3 2-4"
    fill="none"
    stroke="url(#g)"
    stroke-width="3.5"
    stroke-linecap="round"
  />
</svg>

